<svg
   version="1.1"
   id="svg2"
   xml:space="preserve"
   viewBox="0 0 202.10001 52.553333"
   xmlns="http://www.w3.org/2000/svg"
   xmlns:svg="http://www.w3.org/2000/svg"><defs
     id="defs6" /><g fill="currentColor"
     id="g8"
     transform="matrix(1.3333333,0,0,-1.3333333,0,52.553333)"><g fill="currentColor"
       id="g10"
       transform="translate(19.095,5.534)"><g fill="currentColor"
         id="g12"><g fill="currentColor"
           id="g14"><g fill="currentColor"
             id="g16"><g fill="currentColor"
               id="g18"><path
                 d="M 2.49069,0 C 2.49069,1.37558 1.37558,2.49069 0,2.49069 -1.37558,2.49069 -2.49069,1.37558 -2.49069,0 c 0,-1.37558 1.11511,-2.49069 2.49069,-2.49069 1.37558,0 2.49069,1.11511 2.49069,2.49069 z"
                 style="fill:currentColor;fill-opacity:1;fill-rule:nonzero;stroke:none"
                 id="path20" /></g><g fill="currentColor"
               id="g22"><g fill="currentColor"
                 id="g24" /></g></g><g fill="currentColor"
             id="g26"><g fill="currentColor"
               id="g28"><path
                 d="m 2.49069,28.3468 c 0,1.37558 -1.11511,2.4907 -2.49069,2.4907 -1.37558,0 -2.49069,-1.11512 -2.49069,-2.4907 0,-1.37558 1.11511,-2.49069 2.49069,-2.49069 1.37558,0 2.49069,1.11511 2.49069,2.49069 z"
                 style="fill:currentColor;fill-opacity:1;fill-rule:nonzero;stroke:none"
                 id="path30" /></g><g fill="currentColor"
               id="g32"
               transform="translate(0,28.347)"><g fill="currentColor"
                 id="g34" /><g fill="currentColor"
                 id="g36"
                 transform="translate(0,-28.347)" /></g></g><g fill="currentColor"
             id="g38"><g fill="currentColor"
               id="g40"><path
                 d="m 30.8375,0 c 0,1.37558 -1.11512,2.49069 -2.4907,2.49069 -1.37558,0 -2.49069,-1.11511 -2.49069,-2.49069 0,-1.37558 1.11511,-2.49069 2.49069,-2.49069 1.37558,0 2.4907,1.11511 2.4907,2.49069 z"
                 style="fill:currentColor;fill-opacity:1;fill-rule:nonzero;stroke:none"
                 id="path42" /></g><g fill="currentColor"
               id="g44"
               transform="translate(28.346)"><g fill="currentColor"
                 id="g46" /><g fill="currentColor"
                 id="g48"
                 transform="translate(-28.346)" /></g></g><g fill="currentColor"
             id="g50"><g fill="currentColor"
               id="g52"><path
                 d="m 30.8375,28.3468 c 0,1.37558 -1.11512,2.4907 -2.4907,2.4907 -1.37558,0 -2.49069,-1.11512 -2.49069,-2.4907 0,-1.37558 1.11511,-2.49069 2.49069,-2.49069 1.37558,0 2.4907,1.11511 2.4907,2.49069 z"
                 style="fill:currentColor;fill-opacity:1;fill-rule:nonzero;stroke:none"
                 id="path54" /></g><g fill="currentColor"
               id="g56"
               transform="translate(28.346,28.347)"><g fill="currentColor"
                 id="g58" /><g fill="currentColor"
                 id="g60"
                 transform="translate(-28.346,-28.347)" /></g></g><g fill="currentColor"
             id="g62"><g fill="currentColor"
               id="g64"><path
                 d="m 59.18431,0 c 0,1.37558 -1.11511,2.49069 -2.49069,2.49069 -1.3756,0 -2.49069,-1.11511 -2.49069,-2.49069 0,-1.37558 1.11509,-2.49069 2.49069,-2.49069 1.37558,0 2.49069,1.11511 2.49069,2.49069 z"
                 style="fill:currentColor;fill-opacity:1;fill-rule:nonzero;stroke:none"
                 id="path66" /></g><g fill="currentColor"
               id="g68"
               transform="translate(56.693)"><g fill="currentColor"
                 id="g70" /><g fill="currentColor"
                 id="g72"
                 transform="translate(-56.693)" /></g></g><g fill="currentColor"
             id="g74"><g fill="currentColor"
               id="g76"><path
                 d="m 59.18431,28.3468 c 0,1.37558 -1.11511,2.4907 -2.49069,2.4907 -1.3756,0 -2.49069,-1.11512 -2.49069,-2.4907 0,-1.37558 1.11509,-2.49069 2.49069,-2.49069 1.37558,0 2.49069,1.11511 2.49069,2.49069 z"
                 style="fill:currentColor;fill-opacity:1;fill-rule:nonzero;stroke:none"
                 id="path78" /></g><g fill="currentColor"
               id="g80"
               transform="translate(56.693,28.347)"><g fill="currentColor"
                 id="g82" /><g fill="currentColor"
                 id="g84"
                 transform="translate(-56.693,-28.347)" /></g></g><g fill="currentColor"
             id="g86"><g fill="currentColor"
               id="g88"><path
                 d="m 87.53111,0 c 0,1.37558 -1.11511,2.49069 -2.49069,2.49069 -1.37558,0 -2.49069,-1.11511 -2.49069,-2.49069 0,-1.37558 1.11511,-2.49069 2.49069,-2.49069 1.37558,0 2.49069,1.11511 2.49069,2.49069 z"
                 style="fill:currentColor;fill-opacity:1;fill-rule:nonzero;stroke:none"
                 id="path90" /></g><g fill="currentColor"
               id="g92"
               transform="translate(85.039)"><g fill="currentColor"
                 id="g94" /><g fill="currentColor"
                 id="g96"
                 transform="translate(-85.039)" /></g></g><g fill="currentColor"
             id="g98"><g fill="currentColor"
               id="g100"><path
                 d="m 87.53111,28.3468 c 0,1.37558 -1.11511,2.4907 -2.49069,2.4907 -1.37558,0 -2.49069,-1.11512 -2.49069,-2.4907 0,-1.37558 1.11511,-2.49069 2.49069,-2.49069 1.37558,0 2.49069,1.11511 2.49069,2.49069 z"
                 style="fill:currentColor;fill-opacity:1;fill-rule:nonzero;stroke:none"
                 id="path102" /></g><g fill="currentColor"
               id="g104"
               transform="translate(85.039,28.347)"><g fill="currentColor"
                 id="g106" /><g fill="currentColor"
                 id="g108"
                 transform="translate(-85.039,-28.347)" /></g></g><g fill="currentColor"
             id="g110"><g fill="currentColor"
               id="g112"><path
                 d="m 115.87793,0 c 0,1.37558 -1.11511,2.49069 -2.49069,2.49069 -1.37558,0 -2.49069,-1.11511 -2.49069,-2.49069 0,-1.37558 1.11511,-2.49069 2.49069,-2.49069 1.37558,0 2.49069,1.11511 2.49069,2.49069 z"
                 style="fill:currentColor;fill-opacity:1;fill-rule:nonzero;stroke:none"
                 id="path114" /></g><g fill="currentColor"
               id="g116"
               transform="translate(113.385)"><g fill="currentColor"
                 id="g118" /><g fill="currentColor"
                 id="g120"
                 transform="translate(-113.385)" /></g></g><g fill="currentColor"
             id="g122"><g fill="currentColor"
               id="g124"><path
                 d="m 115.87793,28.3468 c 0,1.37558 -1.11511,2.4907 -2.49069,2.4907 -1.37558,0 -2.49069,-1.11512 -2.49069,-2.4907 0,-1.37558 1.11511,-2.49069 2.49069,-2.49069 1.37558,0 2.49069,1.11511 2.49069,2.49069 z"
                 style="fill:currentColor;fill-opacity:1;fill-rule:nonzero;stroke:none"
                 id="path126" /></g><g fill="currentColor"
               id="g128"
               transform="translate(113.385,28.347)"><g fill="currentColor"
                 id="g130" /><g fill="currentColor"
                 id="g132"
                 transform="translate(-113.385,-28.347)" /></g></g><g fill="currentColor"
             id="g134"><g fill="currentColor"
               id="g136"
               transform="translate(14.173,14.174)"><g fill="currentColor"
                 id="g138" /><g fill="currentColor"
                 id="g140"
                 transform="translate(-14.173,-14.174)" /></g></g><g fill="currentColor"
             id="g142"><path
               d="M 2.68994,28.3468 H 23.06659"
               style="fill:none;stroke:currentColor;stroke-width:0.79701;stroke-linecap:butt;stroke-linejoin:miter;stroke-miterlimit:10;stroke-dasharray:none;stroke-opacity:1"
               id="path144" /><g fill="currentColor"
               id="g146"
               transform="translate(23.06659,28.3468)"><g fill="currentColor"
                 id="g148"><path
                   d="M 2.59026,0 -1.55415,2.0722 0,0 -1.55415,-2.0722"
                   style="fill:currentColor;fill-opacity:1;fill-rule:nonzero;stroke:none"
                   id="path150" /></g></g></g><g fill="currentColor"
             id="g152"><path
               d="M 2.68994,0 H 23.06659"
               style="fill:none;stroke:currentColor;stroke-width:0.79701;stroke-linecap:butt;stroke-linejoin:miter;stroke-miterlimit:10;stroke-dasharray:none;stroke-opacity:1"
               id="path154" /><g fill="currentColor"
               id="g156"
               transform="translate(23.06659)"><g fill="currentColor"
                 id="g158"><path
                   d="M 2.59026,0 -1.55415,2.0722 0,0 -1.55415,-2.0722"
                   style="fill:currentColor;fill-opacity:1;fill-rule:nonzero;stroke:none"
                   id="path160" /></g></g></g><g fill="currentColor"
             id="g162"><g fill="currentColor"
               id="g164"
               transform="translate(42.519,14.174)"><g fill="currentColor"
                 id="g166" /><g fill="currentColor"
                 id="g168"
                 transform="translate(-42.519,-14.174)" /></g></g><g fill="currentColor"
             id="g170"><path
               d="M 31.03674,28.3468 H 51.4134"
               style="fill:none;stroke:currentColor;stroke-width:0.79701;stroke-linecap:butt;stroke-linejoin:miter;stroke-miterlimit:10;stroke-dasharray:none;stroke-opacity:1"
               id="path172" /><g fill="currentColor"
               id="g174"
               transform="translate(51.4134,28.3468)"><g fill="currentColor"
                 id="g176"><path
                   d="M 2.59026,0 -1.55415,2.0722 0,0 -1.55415,-2.0722"
                   style="fill:currentColor;fill-opacity:1;fill-rule:nonzero;stroke:none"
                   id="path178" /></g></g></g><g fill="currentColor"
             id="g180"><path
               d="M 31.03674,0 H 51.4134"
               style="fill:none;stroke:currentColor;stroke-width:0.79701;stroke-linecap:butt;stroke-linejoin:miter;stroke-miterlimit:10;stroke-dasharray:none;stroke-opacity:1"
               id="path182" /><g fill="currentColor"
               id="g184"
               transform="translate(51.4134)"><g fill="currentColor"
                 id="g186"><path
                   d="M 2.59026,0 -1.55415,2.0722 0,0 -1.55415,-2.0722"
                   style="fill:currentColor;fill-opacity:1;fill-rule:nonzero;stroke:none"
                   id="path188" /></g></g></g><g fill="currentColor"
             id="g190"><g fill="currentColor"
               id="g192"
               transform="translate(70.866,14.174)"><g fill="currentColor"
                 id="g194" /><g fill="currentColor"
                 id="g196"
                 transform="translate(-70.866,-14.174)" /></g></g><g fill="currentColor"
             id="g198"><path
               d="M 59.38356,28.3468 H 79.76021"
               style="fill:none;stroke:currentColor;stroke-width:0.79701;stroke-linecap:butt;stroke-linejoin:miter;stroke-miterlimit:10;stroke-dasharray:none;stroke-opacity:1"
               id="path200" /><g fill="currentColor"
               id="g202"
               transform="translate(79.76021,28.3468)"><g fill="currentColor"
                 id="g204"><path
                   d="M 2.59026,0 -1.55415,2.0722 0,0 -1.55415,-2.0722"
                   style="fill:currentColor;fill-opacity:1;fill-rule:nonzero;stroke:none"
                   id="path206" /></g></g></g><g fill="currentColor"
             id="g208"><path
               d="M 59.38356,0 H 79.76021"
               style="fill:none;stroke:currentColor;stroke-width:0.79701;stroke-linecap:butt;stroke-linejoin:miter;stroke-miterlimit:10;stroke-dasharray:none;stroke-opacity:1"
               id="path210" /><g fill="currentColor"
               id="g212"
               transform="translate(79.76021)"><g fill="currentColor"
                 id="g214"><path
                   d="M 2.59026,0 -1.55415,2.0722 0,0 -1.55415,-2.0722"
                   style="fill:currentColor;fill-opacity:1;fill-rule:nonzero;stroke:none"
                   id="path216" /></g></g></g><g fill="currentColor"
             id="g218"><g fill="currentColor"
               id="g220"
               transform="translate(99.212,14.174)"><g fill="currentColor"
                 id="g222" /><g fill="currentColor"
                 id="g224"
                 transform="translate(-99.212,-14.174)" /></g></g><g fill="currentColor"
             id="g226"><path
               d="m 87.73036,28.3468 h 20.37667"
               style="fill:none;stroke:currentColor;stroke-width:0.79701;stroke-linecap:butt;stroke-linejoin:miter;stroke-miterlimit:10;stroke-dasharray:none;stroke-opacity:1"
               id="path228" /><g fill="currentColor"
               id="g230"
               transform="translate(108.10703,28.3468)"><g fill="currentColor"
                 id="g232"><path
                   d="M 2.59026,0 -1.55415,2.0722 0,0 -1.55415,-2.0722"
                   style="fill:currentColor;fill-opacity:1;fill-rule:nonzero;stroke:none"
                   id="path234" /></g></g></g><g fill="currentColor"
             id="g236"><path
               d="m 87.73036,0 h 20.37667"
               style="fill:none;stroke:currentColor;stroke-width:0.79701;stroke-linecap:butt;stroke-linejoin:miter;stroke-miterlimit:10;stroke-dasharray:none;stroke-opacity:1"
               id="path238" /><g fill="currentColor"
               id="g240"
               transform="translate(108.10703)"><g fill="currentColor"
                 id="g242"><path
                   d="M 2.59026,0 -1.55415,2.0722 0,0 -1.55415,-2.0722"
                   style="fill:currentColor;fill-opacity:1;fill-rule:nonzero;stroke:none"
                   id="path244" /></g></g></g><g fill="currentColor"
             id="g246"><path
               d="M 0,2.68994 V 25.65686"
               style="fill:none;stroke:currentColor;stroke-width:0.79701;stroke-linecap:butt;stroke-linejoin:miter;stroke-miterlimit:10;stroke-dasharray:none;stroke-opacity:1"
               id="path248" /></g><g fill="currentColor"
             id="g250"><path
               d="M 28.3468,2.68994 V 25.65686"
               style="fill:none;stroke:currentColor;stroke-width:0.79701;stroke-linecap:butt;stroke-linejoin:miter;stroke-miterlimit:10;stroke-dasharray:none;stroke-opacity:1"
               id="path252" /></g><g fill="currentColor"
             id="g254"><path
               d="M 56.69362,2.68994 V 25.65686"
               style="fill:none;stroke:currentColor;stroke-width:0.79701;stroke-linecap:butt;stroke-linejoin:miter;stroke-miterlimit:10;stroke-dasharray:none;stroke-opacity:1"
               id="path256" /></g><g fill="currentColor"
             id="g258"><path
               d="M 85.04042,2.68994 V 25.65686"
               style="fill:none;stroke:currentColor;stroke-width:0.79701;stroke-linecap:butt;stroke-linejoin:miter;stroke-miterlimit:10;stroke-dasharray:none;stroke-opacity:1"
               id="path260" /></g><g fill="currentColor"
             id="g262"><path
               d="M 113.38724,2.68994 V 25.65686"
               style="fill:none;stroke:currentColor;stroke-width:0.79701;stroke-linecap:butt;stroke-linejoin:miter;stroke-miterlimit:10;stroke-dasharray:none;stroke-opacity:1"
               id="path264" /></g><g fill="currentColor"
             id="g266"><g fill="currentColor"
               id="g268"
               transform="translate(-15.774,-2.213)"><g fill="currentColor"
                 id="g270"><g fill="currentColor"
                   id="g272"
                   transform="translate(-3.321,-3.321)"><g fill="currentColor"
                     aria-label="···"
                     transform="matrix(1,0,0,-1,3.321,3.321)"
                     id="text276"
                     style="font-size:9.9626px;font-family:CMSY10;-inkscape-font-specification:CMSY10"><path
                       d="m 1.0653366,-4.0764935 h 1.0264202 v 1.2355959 H 1.0653366 Z"
                       id="path330" /><path
                       d="m 5.4967011,-4.0764935 h 1.0264202 v 1.2355959 H 5.4967011 Z"
                       id="path332" /><path
                       d="m 9.9181026,-4.0764935 h 1.0264204 v 1.2355959 H 9.9181026 Z"
                       id="path334" /></g><g fill="currentColor"
                     id="g278"
                     transform="translate(3.321,3.321)" /></g></g><g fill="currentColor"
                 id="g280"
                 transform="translate(15.774,2.213)" /></g></g><g fill="currentColor"
             id="g282"><g fill="currentColor"
               id="g284"
               transform="translate(-15.774,26.133)"><g fill="currentColor"
                 id="g286"><g fill="currentColor"
                   id="g288"
                   transform="translate(-3.321,-31.667)"><g fill="currentColor"
                     aria-label="···"
                     transform="matrix(1,0,0,-1,3.321,31.667)"
                     id="text292"
                     style="font-size:9.9626px;font-family:CMSY10;-inkscape-font-specification:CMSY10"><path
                       d="m 1.0653366,-4.0764935 h 1.0264202 v 1.2355959 H 1.0653366 Z"
                       id="path337" /><path
                       d="m 5.4967011,-4.0764935 h 1.0264202 v 1.2355959 H 5.4967011 Z"
                       id="path339" /><path
                       d="m 9.9181026,-4.0764935 h 1.0264204 v 1.2355959 H 9.9181026 Z"
                       id="path341" /></g><g fill="currentColor"
                     id="g294"
                     transform="translate(3.321,31.667)" /></g></g><g fill="currentColor"
                 id="g296"
                 transform="translate(15.774,-26.133)" /></g></g><g fill="currentColor"
             id="g298"><g fill="currentColor"
               id="g300"
               transform="translate(117.537,-2.213)"><g fill="currentColor"
                 id="g302"><g fill="currentColor"
                   id="g304"
                   transform="translate(-136.632,-3.321)"><g fill="currentColor"
                     aria-label="···"
                     transform="matrix(1,0,0,-1,136.632,3.321)"
                     id="text308"
                     style="font-size:9.9626px;font-family:CMSY10;-inkscape-font-specification:CMSY10"><path
                       d="m 1.0653366,-4.0764935 h 1.0264202 v 1.2355959 H 1.0653366 Z"
                       id="path344" /><path
                       d="m 5.4967011,-4.0764935 h 1.0264202 v 1.2355959 H 5.4967011 Z"
                       id="path346" /><path
                       d="m 9.9181026,-4.0764935 h 1.0264204 v 1.2355959 H 9.9181026 Z"
                       id="path348" /></g><g fill="currentColor"
                     id="g310"
                     transform="translate(136.632,3.321)" /></g></g><g fill="currentColor"
                 id="g312"
                 transform="translate(-117.537,2.213)" /></g></g><g fill="currentColor"
             id="g314"><g fill="currentColor"
               id="g316"
               transform="translate(117.537,26.133)"><g fill="currentColor"
                 id="g318"><g fill="currentColor"
                   id="g320"
                   transform="translate(-136.632,-31.667)"><g fill="currentColor"
                     aria-label="···"
                     transform="matrix(1,0,0,-1,136.632,31.667)"
                     id="text324"
                     style="font-size:9.9626px;font-family:CMSY10;-inkscape-font-specification:CMSY10"><path
                       d="m 1.0653366,-4.0764935 h 1.0264202 v 1.2355959 H 1.0653366 Z"
                       id="path351" /><path
                       d="m 5.4967011,-4.0764935 h 1.0264202 v 1.2355959 H 5.4967011 Z"
                       id="path353" /><path
                       d="m 9.9181026,-4.0764935 h 1.0264204 v 1.2355959 H 9.9181026 Z"
                       id="path355" /></g><g fill="currentColor"
                     id="g326"
                     transform="translate(136.632,31.667)" /></g></g><g fill="currentColor"
                 id="g328"
                 transform="translate(-117.537,-26.133)" /></g></g></g></g></g></g></svg>
