<svg
   version="1.1"
   xml:space="preserve"
   viewBox="0 0 202.10001 52.553333"
   xmlns="http://www.w3.org/2000/svg"><g fill="currentColor"
     transform="matrix(1.3333333,0,0,-1.3333333,0,52.553333)"><g fill="currentColor"
       transform="translate(19.095,5.534)"><g fill="currentColor"><g fill="currentColor"><g fill="currentColor"><g fill="currentColor"><path
                 d="M 2.49069,0 C 2.49069,1.37558 1.37558,2.49069 0,2.49069 -1.37558,2.49069 -2.49069,1.37558 -2.49069,0 c 0,-1.37558 1.11511,-2.49069 2.49069,-2.49069 1.37558,0 2.49069,1.11511 2.49069,2.49069 z"
                 style="fill:currentColor;fill-opacity:1;fill-rule:nonzero;stroke:none" /></g><g fill="currentColor"><g fill="currentColor" /></g></g><g fill="currentColor"><g fill="currentColor"><path
                 d="m 2.49069,28.3468 c 0,1.37558 -1.11511,2.4907 -2.49069,2.4907 -1.37558,0 -2.49069,-1.11512 -2.49069,-2.4907 0,-1.37558 1.11511,-2.49069 2.49069,-2.49069 1.37558,0 2.49069,1.11511 2.49069,2.49069 z"
                 style="fill:currentColor;fill-opacity:1;fill-rule:nonzero;stroke:none" /></g><g fill="currentColor"
               transform="translate(0,28.347)"><g fill="currentColor" /><g fill="currentColor"
                 transform="translate(0,-28.347)" /></g></g><g fill="currentColor"><g fill="currentColor"><path
                 d="m 30.8375,0 c 0,1.37558 -1.11512,2.49069 -2.4907,2.49069 -1.37558,0 -2.49069,-1.11511 -2.49069,-2.49069 0,-1.37558 1.11511,-2.49069 2.49069,-2.49069 1.37558,0 2.4907,1.11511 2.4907,2.49069 z"
                 style="fill:currentColor;fill-opacity:1;fill-rule:nonzero;stroke:none" /></g><g fill="currentColor"
               transform="translate(28.346)"><g fill="currentColor" /><g fill="currentColor"
                 transform="translate(-28.346)" /></g></g><g fill="currentColor"><g fill="currentColor"><path
                 d="m 30.8375,28.3468 c 0,1.37558 -1.11512,2.4907 -2.4907,2.4907 -1.37558,0 -2.49069,-1.11512 -2.49069,-2.4907 0,-1.37558 1.11511,-2.49069 2.49069,-2.49069 1.37558,0 2.4907,1.11511 2.4907,2.49069 z"
                 style="fill:currentColor;fill-opacity:1;fill-rule:nonzero;stroke:none" /></g><g fill="currentColor"
               transform="translate(28.346,28.347)"><g fill="currentColor" /><g fill="currentColor"
                 transform="translate(-28.346,-28.347)" /></g></g><g fill="currentColor"><g fill="currentColor"><path
                 d="m 59.18431,0 c 0,1.37558 -1.11511,2.49069 -2.49069,2.49069 -1.3756,0 -2.49069,-1.11511 -2.49069,-2.49069 0,-1.37558 1.11509,-2.49069 2.49069,-2.49069 1.37558,0 2.49069,1.11511 2.49069,2.49069 z"
                 style="fill:currentColor;fill-opacity:1;fill-rule:nonzero;stroke:none" /></g><g fill="currentColor"
               transform="translate(56.693)"><g fill="currentColor" /><g fill="currentColor"
                 transform="translate(-56.693)" /></g></g><g fill="currentColor"><g fill="currentColor"><path
                 d="m 59.18431,28.3468 c 0,1.37558 -1.11511,2.4907 -2.49069,2.4907 -1.3756,0 -2.49069,-1.11512 -2.49069,-2.4907 0,-1.37558 1.11509,-2.49069 2.49069,-2.49069 1.37558,0 2.49069,1.11511 2.49069,2.49069 z"
                 style="fill:currentColor;fill-opacity:1;fill-rule:nonzero;stroke:none" /></g><g fill="currentColor"
               transform="translate(56.693,28.347)"><g fill="currentColor" /><g fill="currentColor"
                 transform="translate(-56.693,-28.347)" /></g></g><g fill="currentColor"><g fill="currentColor"><path
                 d="m 87.53111,0 c 0,1.37558 -1.11511,2.49069 -2.49069,2.49069 -1.37558,0 -2.49069,-1.11511 -2.49069,-2.49069 0,-1.37558 1.11511,-2.49069 2.49069,-2.49069 1.37558,0 2.49069,1.11511 2.49069,2.49069 z"
                 style="fill:currentColor;fill-opacity:1;fill-rule:nonzero;stroke:none" /></g><g fill="currentColor"
               transform="translate(85.039)"><g fill="currentColor" /><g fill="currentColor"
                 transform="translate(-85.039)" /></g></g><g fill="currentColor"><g fill="currentColor"><path
                 d="m 87.53111,28.3468 c 0,1.37558 -1.11511,2.4907 -2.49069,2.4907 -1.37558,0 -2.49069,-1.11512 -2.49069,-2.4907 0,-1.37558 1.11511,-2.49069 2.49069,-2.49069 1.37558,0 2.49069,1.11511 2.49069,2.49069 z"
                 style="fill:currentColor;fill-opacity:1;fill-rule:nonzero;stroke:none" /></g><g fill="currentColor"
               transform="translate(85.039,28.347)"><g fill="currentColor" /><g fill="currentColor"
                 transform="translate(-85.039,-28.347)" /></g></g><g fill="currentColor"><g fill="currentColor"><path
                 d="m 115.87793,0 c 0,1.37558 -1.11511,2.49069 -2.49069,2.49069 -1.37558,0 -2.49069,-1.11511 -2.49069,-2.49069 0,-1.37558 1.11511,-2.49069 2.49069,-2.49069 1.37558,0 2.49069,1.11511 2.49069,2.49069 z"
                 style="fill:currentColor;fill-opacity:1;fill-rule:nonzero;stroke:none" /></g><g fill="currentColor"
               transform="translate(113.385)"><g fill="currentColor" /><g fill="currentColor"
                 transform="translate(-113.385)" /></g></g><g fill="currentColor"><g fill="currentColor"><path
                 d="m 115.87793,28.3468 c 0,1.37558 -1.11511,2.4907 -2.49069,2.4907 -1.37558,0 -2.49069,-1.11512 -2.49069,-2.4907 0,-1.37558 1.11511,-2.49069 2.49069,-2.49069 1.37558,0 2.49069,1.11511 2.49069,2.49069 z"
                 style="fill:currentColor;fill-opacity:1;fill-rule:nonzero;stroke:none" /></g><g fill="currentColor"
               transform="translate(113.385,28.347)"><g fill="currentColor" /><g fill="currentColor"
                 transform="translate(-113.385,-28.347)" /></g></g><g fill="currentColor"><g fill="currentColor"
               transform="translate(14.173,14.174)"><g fill="currentColor" /><g fill="currentColor"
                 transform="translate(-14.173,-14.174)" /></g></g><g fill="currentColor"><path
               d="M 2.68994,28.3468 H 23.06659"
               style="fill:none;stroke:currentColor;stroke-width:0.79701;stroke-linecap:butt;stroke-linejoin:miter;stroke-miterlimit:10;stroke-dasharray:none;stroke-opacity:1" /><g fill="currentColor"
               transform="translate(23.06659,28.3468)"><g fill="currentColor"><path
                   d="M 2.59026,0 -1.55415,2.0722 0,0 -1.55415,-2.0722"
                   style="fill:currentColor;fill-opacity:1;fill-rule:nonzero;stroke:none" /></g></g></g><g fill="currentColor"><path
               d="M 2.68994,0 H 23.06659"
               style="fill:none;stroke:currentColor;stroke-width:0.79701;stroke-linecap:butt;stroke-linejoin:miter;stroke-miterlimit:10;stroke-dasharray:none;stroke-opacity:1" /><g fill="currentColor"
               transform="translate(23.06659)"><g fill="currentColor"><path
                   d="M 2.59026,0 -1.55415,2.0722 0,0 -1.55415,-2.0722"
                   style="fill:currentColor;fill-opacity:1;fill-rule:nonzero;stroke:none" /></g></g></g><g fill="currentColor"><path
               d="M 1.90207,26.44473 24.61313,3.73366"
               style="fill:none;stroke:currentColor;stroke-width:0.79701;stroke-linecap:butt;stroke-linejoin:miter;stroke-miterlimit:10;stroke-dasharray:none;stroke-opacity:1" /><g fill="currentColor"
               transform="matrix(0.7071,-0.7071,0.7071,0.7071,24.61313,3.73366)"><g fill="currentColor"><path
                   d="M 2.59026,0 -1.55415,2.0722 0,0 -1.55415,-2.0722"
                   style="fill:currentColor;fill-opacity:1;fill-rule:nonzero;stroke:none" /></g></g></g><g fill="currentColor"><path
               d="m 1.90207,1.90207 10.36925,10.36925 m 3.80413,3.80413 8.53768,8.53768"
               style="fill:none;stroke:currentColor;stroke-width:0.79701;stroke-linecap:butt;stroke-linejoin:miter;stroke-miterlimit:10;stroke-dasharray:none;stroke-opacity:1" /><g fill="currentColor"
               transform="matrix(0.7071,0.7071,-0.7071,0.7071,24.61313,24.61313)"><g fill="currentColor"><path
                   d="M 2.59026,0 -1.55415,2.0722 0,0 -1.55415,-2.0722"
                   style="fill:currentColor;fill-opacity:1;fill-rule:nonzero;stroke:none" /></g></g></g><g fill="currentColor"><g fill="currentColor"
               transform="translate(42.519,14.174)"><g fill="currentColor" /><g fill="currentColor"
                 transform="translate(-42.519,-14.174)" /></g></g><g fill="currentColor"><path
               d="M 31.03674,28.3468 H 51.4134"
               style="fill:none;stroke:currentColor;stroke-width:0.79701;stroke-linecap:butt;stroke-linejoin:miter;stroke-miterlimit:10;stroke-dasharray:none;stroke-opacity:1" /><g fill="currentColor"
               transform="translate(51.4134,28.3468)"><g fill="currentColor"><path
                   d="M 2.59026,0 -1.55415,2.0722 0,0 -1.55415,-2.0722"
                   style="fill:currentColor;fill-opacity:1;fill-rule:nonzero;stroke:none" /></g></g></g><g fill="currentColor"><path
               d="M 31.03674,0 H 51.4134"
               style="fill:none;stroke:currentColor;stroke-width:0.79701;stroke-linecap:butt;stroke-linejoin:miter;stroke-miterlimit:10;stroke-dasharray:none;stroke-opacity:1" /><g fill="currentColor"
               transform="translate(51.4134)"><g fill="currentColor"><path
                   d="M 2.59026,0 -1.55415,2.0722 0,0 -1.55415,-2.0722"
                   style="fill:currentColor;fill-opacity:1;fill-rule:nonzero;stroke:none" /></g></g></g><g fill="currentColor"><path
               d="M 30.24887,26.44473 52.95995,3.73366"
               style="fill:none;stroke:currentColor;stroke-width:0.79701;stroke-linecap:butt;stroke-linejoin:miter;stroke-miterlimit:10;stroke-dasharray:none;stroke-opacity:1" /><g fill="currentColor"
               transform="matrix(0.7071,-0.7071,0.7071,0.7071,52.95995,3.73366)"><g fill="currentColor"><path
                   d="M 2.59026,0 -1.55415,2.0722 0,0 -1.55415,-2.0722"
                   style="fill:currentColor;fill-opacity:1;fill-rule:nonzero;stroke:none" /></g></g></g><g fill="currentColor"><path
               d="m 30.24887,1.90207 10.36926,10.36925 m 3.80414,3.80413 8.53768,8.53768"
               style="fill:none;stroke:currentColor;stroke-width:0.79701;stroke-linecap:butt;stroke-linejoin:miter;stroke-miterlimit:10;stroke-dasharray:none;stroke-opacity:1" /><g fill="currentColor"
               transform="matrix(0.7071,0.7071,-0.7071,0.7071,52.95995,24.61313)"><g fill="currentColor"><path
                   d="M 2.59026,0 -1.55415,2.0722 0,0 -1.55415,-2.0722"
                   style="fill:currentColor;fill-opacity:1;fill-rule:nonzero;stroke:none" /></g></g></g><g fill="currentColor"><g fill="currentColor"
               transform="translate(70.866,14.174)"><g fill="currentColor" /><g fill="currentColor"
                 transform="translate(-70.866,-14.174)" /></g></g><g fill="currentColor"><path
               d="M 59.38356,28.3468 H 79.76021"
               style="fill:none;stroke:currentColor;stroke-width:0.79701;stroke-linecap:butt;stroke-linejoin:miter;stroke-miterlimit:10;stroke-dasharray:none;stroke-opacity:1" /><g fill="currentColor"
               transform="translate(79.76021,28.3468)"><g fill="currentColor"><path
                   d="M 2.59026,0 -1.55415,2.0722 0,0 -1.55415,-2.0722"
                   style="fill:currentColor;fill-opacity:1;fill-rule:nonzero;stroke:none" /></g></g></g><g fill="currentColor"><path
               d="M 59.38356,0 H 79.76021"
               style="fill:none;stroke:currentColor;stroke-width:0.79701;stroke-linecap:butt;stroke-linejoin:miter;stroke-miterlimit:10;stroke-dasharray:none;stroke-opacity:1" /><g fill="currentColor"
               transform="translate(79.76021)"><g fill="currentColor"><path
                   d="M 2.59026,0 -1.55415,2.0722 0,0 -1.55415,-2.0722"
                   style="fill:currentColor;fill-opacity:1;fill-rule:nonzero;stroke:none" /></g></g></g><g fill="currentColor"><path
               d="M 58.59569,26.44473 81.30676,3.73366"
               style="fill:none;stroke:currentColor;stroke-width:0.79701;stroke-linecap:butt;stroke-linejoin:miter;stroke-miterlimit:10;stroke-dasharray:none;stroke-opacity:1" /><g fill="currentColor"
               transform="matrix(0.7071,-0.7071,0.7071,0.7071,81.30676,3.73366)"><g fill="currentColor"><path
                   d="M 2.59026,0 -1.55415,2.0722 0,0 -1.55415,-2.0722"
                   style="fill:currentColor;fill-opacity:1;fill-rule:nonzero;stroke:none" /></g></g></g><g fill="currentColor"><path
               d="m 58.59569,1.90207 10.36925,10.36925 m 3.80413,3.80413 8.53769,8.53768"
               style="fill:none;stroke:currentColor;stroke-width:0.79701;stroke-linecap:butt;stroke-linejoin:miter;stroke-miterlimit:10;stroke-dasharray:none;stroke-opacity:1" /><g fill="currentColor"
               transform="matrix(0.7071,0.7071,-0.7071,0.7071,81.30676,24.61313)"><g fill="currentColor"><path
                   d="M 2.59026,0 -1.55415,2.0722 0,0 -1.55415,-2.0722"
                   style="fill:currentColor;fill-opacity:1;fill-rule:nonzero;stroke:none" /></g></g></g><g fill="currentColor"><g fill="currentColor"
               transform="translate(99.212,14.174)"><g fill="currentColor" /><g fill="currentColor"
                 transform="translate(-99.212,-14.174)" /></g></g><g fill="currentColor"><path
               d="m 87.73036,28.3468 h 20.37667"
               style="fill:none;stroke:currentColor;stroke-width:0.79701;stroke-linecap:butt;stroke-linejoin:miter;stroke-miterlimit:10;stroke-dasharray:none;stroke-opacity:1" /><g fill="currentColor"
               transform="translate(108.10703,28.3468)"><g fill="currentColor"><path
                   d="M 2.59026,0 -1.55415,2.0722 0,0 -1.55415,-2.0722"
                   style="fill:currentColor;fill-opacity:1;fill-rule:nonzero;stroke:none" /></g></g></g><g fill="currentColor"><path
               d="m 87.73036,0 h 20.37667"
               style="fill:none;stroke:currentColor;stroke-width:0.79701;stroke-linecap:butt;stroke-linejoin:miter;stroke-miterlimit:10;stroke-dasharray:none;stroke-opacity:1" /><g fill="currentColor"
               transform="translate(108.10703)"><g fill="currentColor"><path
                   d="M 2.59026,0 -1.55415,2.0722 0,0 -1.55415,-2.0722"
                   style="fill:currentColor;fill-opacity:1;fill-rule:nonzero;stroke:none" /></g></g></g><g fill="currentColor"><path
               d="M 86.94249,26.44473 109.65356,3.73366"
               style="fill:none;stroke:currentColor;stroke-width:0.79701;stroke-linecap:butt;stroke-linejoin:miter;stroke-miterlimit:10;stroke-dasharray:none;stroke-opacity:1" /><g fill="currentColor"
               transform="matrix(0.7071,-0.7071,0.7071,0.7071,109.65356,3.73366)"><g fill="currentColor"><path
                   d="M 2.59026,0 -1.55415,2.0722 0,0 -1.55415,-2.0722"
                   style="fill:currentColor;fill-opacity:1;fill-rule:nonzero;stroke:none" /></g></g></g><g fill="currentColor"><path
               d="m 86.94249,1.90207 10.36926,10.36925 m 3.80414,3.80413 8.53767,8.53768"
               style="fill:none;stroke:currentColor;stroke-width:0.79701;stroke-linecap:butt;stroke-linejoin:miter;stroke-miterlimit:10;stroke-dasharray:none;stroke-opacity:1" /><g fill="currentColor"
               transform="matrix(0.7071,0.7071,-0.7071,0.7071,109.65356,24.61313)"><g fill="currentColor"><path
                   d="M 2.59026,0 -1.55415,2.0722 0,0 -1.55415,-2.0722"
                   style="fill:currentColor;fill-opacity:1;fill-rule:nonzero;stroke:none" /></g></g></g><g fill="currentColor"><g fill="currentColor"
               transform="translate(-15.774,-2.213)"><g fill="currentColor"><g fill="currentColor"
                   transform="translate(-3.321,-3.321)"><text
                     transform="matrix(1,0,0,-1,3.321,3.321)"
                     style="font-variant:normal;font-weight:normal;font-size:9.9626px;font-family:CMSY10;-inkscape-font-specification:CMSY10;writing-mode:lr-tb;fill:currentColor;fill-opacity:1;fill-rule:nonzero;stroke:none"><tspan
                       x="0 4.4313645 8.852766"
                       y="0">···</tspan></text><g fill="currentColor"
                     transform="translate(3.321,3.321)" /></g></g><g fill="currentColor"
                 transform="translate(15.774,2.213)" /></g></g><g fill="currentColor"><g fill="currentColor"
               transform="translate(-15.774,26.133)"><g fill="currentColor"><g fill="currentColor"
                   transform="translate(-3.321,-31.667)"><text
                     transform="matrix(1,0,0,-1,3.321,31.667)"
                     style="font-variant:normal;font-weight:normal;font-size:9.9626px;font-family:CMSY10;-inkscape-font-specification:CMSY10;writing-mode:lr-tb;fill:currentColor;fill-opacity:1;fill-rule:nonzero;stroke:none"><tspan
                       x="0 4.4313645 8.852766"
                       y="0">···</tspan></text><g fill="currentColor"
                     transform="translate(3.321,31.667)" /></g></g><g fill="currentColor"
                 transform="translate(15.774,-26.133)" /></g></g><g fill="currentColor"><g fill="currentColor"
               transform="translate(117.537,-2.213)"><g fill="currentColor"><g fill="currentColor"
                   transform="translate(-136.632,-3.321)"><text
                     transform="matrix(1,0,0,-1,136.632,3.321)"
                     style="font-variant:normal;font-weight:normal;font-size:9.9626px;font-family:CMSY10;-inkscape-font-specification:CMSY10;writing-mode:lr-tb;fill:currentColor;fill-opacity:1;fill-rule:nonzero;stroke:none"><tspan
                       x="0 4.4313645 8.852766"
                       y="0">···</tspan></text><g fill="currentColor"
                     transform="translate(136.632,3.321)" /></g></g><g fill="currentColor"
                 transform="translate(-117.537,2.213)" /></g></g><g fill="currentColor"><g fill="currentColor"
               transform="translate(117.537,26.133)"><g fill="currentColor"><g fill="currentColor"
                   transform="translate(-136.632,-31.667)"><text
                     transform="matrix(1,0,0,-1,136.632,31.667)"
                     style="font-variant:normal;font-weight:normal;font-size:9.9626px;font-family:CMSY10;-inkscape-font-specification:CMSY10;writing-mode:lr-tb;fill:currentColor;fill-opacity:1;fill-rule:nonzero;stroke:none"><tspan
                       x="0 4.4313645 8.852766"
                       y="0">···</tspan></text><g fill="currentColor"
                     transform="translate(136.632,31.667)" /></g></g><g fill="currentColor"
                 transform="translate(-117.537,-26.133)" /></g></g></g></g></g></g></svg>
