<svg
   version="1.1"
   id="svg2"
   xml:space="preserve"
   viewBox="0 0 202.10001 52.553333"
   sodipodi:docname="figure2.pdf"
   xmlns:inkscape="http://www.inkscape.org/namespaces/inkscape"
   xmlns:sodipodi="http://sodipodi.sourceforge.net/DTD/sodipodi-0.dtd"
   xmlns="http://www.w3.org/2000/svg"
   xmlns:svg="http://www.w3.org/2000/svg"><defs
     id="defs6" /><sodipodi:namedview
     id="namedview4"
     pagecolor="#ffffff"
     bordercolor="#666666"
     borderopacity="1.0"
     inkscape:pageshadow="2"
     inkscape:pageopacity="0.0"
     inkscape:pagecheckerboard="0" /><g fill="currentColor"
     id="g8"
     inkscape:groupmode="layer"
     inkscape:label="figure2"
     transform="matrix(1.3333333,0,0,-1.3333333,0,52.553333)"><g fill="currentColor"
       id="g10"
       transform="translate(19.095,5.534)"><g fill="currentColor"
         id="g12"><g fill="currentColor"
           id="g14"><g fill="currentColor"
             id="g16"><g fill="currentColor"
               id="g18"><path
                 d="M 2.49069,0 C 2.49069,1.37558 1.37558,2.49069 0,2.49069 -1.37558,2.49069 -2.49069,1.37558 -2.49069,0 c 0,-1.37558 1.11511,-2.49069 2.49069,-2.49069 1.37558,0 2.49069,1.11511 2.49069,2.49069 z"
                 style="fill:currentColor;fill-opacity:1;fill-rule:nonzero;stroke:none"
                 id="path20" /></g><g fill="currentColor"
               id="g22"><g fill="currentColor"
                 id="g24" /></g></g><g fill="currentColor"
             id="g26"><g fill="currentColor"
               id="g28"><path
                 d="m 2.49069,28.3468 c 0,1.37558 -1.11511,2.4907 -2.49069,2.4907 -1.37558,0 -2.49069,-1.11512 -2.49069,-2.4907 0,-1.37558 1.11511,-2.49069 2.49069,-2.49069 1.37558,0 2.49069,1.11511 2.49069,2.49069 z"
                 style="fill:currentColor;fill-opacity:1;fill-rule:nonzero;stroke:none"
                 id="path30" /></g><g fill="currentColor"
               id="g32"
               transform="translate(0,28.347)"><g fill="currentColor"
                 id="g34" /><g fill="currentColor"
                 id="g36"
                 transform="translate(0,-28.347)" /></g></g><g fill="currentColor"
             id="g38"><g fill="currentColor"
               id="g40"><path
                 d="m 30.8375,0 c 0,1.37558 -1.11512,2.49069 -2.4907,2.49069 -1.37558,0 -2.49069,-1.11511 -2.49069,-2.49069 0,-1.37558 1.11511,-2.49069 2.49069,-2.49069 1.37558,0 2.4907,1.11511 2.4907,2.49069 z"
                 style="fill:currentColor;fill-opacity:1;fill-rule:nonzero;stroke:none"
                 id="path42" /></g><g fill="currentColor"
               id="g44"
               transform="translate(28.346)"><g fill="currentColor"
                 id="g46" /><g fill="currentColor"
                 id="g48"
                 transform="translate(-28.346)" /></g></g><g fill="currentColor"
             id="g50"><g fill="currentColor"
               id="g52"><path
                 d="m 30.8375,28.3468 c 0,1.37558 -1.11512,2.4907 -2.4907,2.4907 -1.37558,0 -2.49069,-1.11512 -2.49069,-2.4907 0,-1.37558 1.11511,-2.49069 2.49069,-2.49069 1.37558,0 2.4907,1.11511 2.4907,2.49069 z"
                 style="fill:currentColor;fill-opacity:1;fill-rule:nonzero;stroke:none"
                 id="path54" /></g><g fill="currentColor"
               id="g56"
               transform="translate(28.346,28.347)"><g fill="currentColor"
                 id="g58" /><g fill="currentColor"
                 id="g60"
                 transform="translate(-28.346,-28.347)" /></g></g><g fill="currentColor"
             id="g62"><g fill="currentColor"
               id="g64"><path
                 d="m 59.18431,0 c 0,1.37558 -1.11511,2.49069 -2.49069,2.49069 -1.3756,0 -2.49069,-1.11511 -2.49069,-2.49069 0,-1.37558 1.11509,-2.49069 2.49069,-2.49069 1.37558,0 2.49069,1.11511 2.49069,2.49069 z"
                 style="fill:currentColor;fill-opacity:1;fill-rule:nonzero;stroke:none"
                 id="path66" /></g><g fill="currentColor"
               id="g68"
               transform="translate(56.693)"><g fill="currentColor"
                 id="g70" /><g fill="currentColor"
                 id="g72"
                 transform="translate(-56.693)" /></g></g><g fill="currentColor"
             id="g74"><g fill="currentColor"
               id="g76"><path
                 d="m 59.18431,28.3468 c 0,1.37558 -1.11511,2.4907 -2.49069,2.4907 -1.3756,0 -2.49069,-1.11512 -2.49069,-2.4907 0,-1.37558 1.11509,-2.49069 2.49069,-2.49069 1.37558,0 2.49069,1.11511 2.49069,2.49069 z"
                 style="fill:currentColor;fill-opacity:1;fill-rule:nonzero;stroke:none"
                 id="path78" /></g><g fill="currentColor"
               id="g80"
               transform="translate(56.693,28.347)"><g fill="currentColor"
                 id="g82" /><g fill="currentColor"
                 id="g84"
                 transform="translate(-56.693,-28.347)" /></g></g><g fill="currentColor"
             id="g86"><g fill="currentColor"
               id="g88"><path
                 d="m 87.53111,0 c 0,1.37558 -1.11511,2.49069 -2.49069,2.49069 -1.37558,0 -2.49069,-1.11511 -2.49069,-2.49069 0,-1.37558 1.11511,-2.49069 2.49069,-2.49069 1.37558,0 2.49069,1.11511 2.49069,2.49069 z"
                 style="fill:currentColor;fill-opacity:1;fill-rule:nonzero;stroke:none"
                 id="path90" /></g><g fill="currentColor"
               id="g92"
               transform="translate(85.039)"><g fill="currentColor"
                 id="g94" /><g fill="currentColor"
                 id="g96"
                 transform="translate(-85.039)" /></g></g><g fill="currentColor"
             id="g98"><g fill="currentColor"
               id="g100"><path
                 d="m 87.53111,28.3468 c 0,1.37558 -1.11511,2.4907 -2.49069,2.4907 -1.37558,0 -2.49069,-1.11512 -2.49069,-2.4907 0,-1.37558 1.11511,-2.49069 2.49069,-2.49069 1.37558,0 2.49069,1.11511 2.49069,2.49069 z"
                 style="fill:currentColor;fill-opacity:1;fill-rule:nonzero;stroke:none"
                 id="path102" /></g><g fill="currentColor"
               id="g104"
               transform="translate(85.039,28.347)"><g fill="currentColor"
                 id="g106" /><g fill="currentColor"
                 id="g108"
                 transform="translate(-85.039,-28.347)" /></g></g><g fill="currentColor"
             id="g110"><g fill="currentColor"
               id="g112"><path
                 d="m 115.87793,0 c 0,1.37558 -1.11511,2.49069 -2.49069,2.49069 -1.37558,0 -2.49069,-1.11511 -2.49069,-2.49069 0,-1.37558 1.11511,-2.49069 2.49069,-2.49069 1.37558,0 2.49069,1.11511 2.49069,2.49069 z"
                 style="fill:currentColor;fill-opacity:1;fill-rule:nonzero;stroke:none"
                 id="path114" /></g><g fill="currentColor"
               id="g116"
               transform="translate(113.385)"><g fill="currentColor"
                 id="g118" /><g fill="currentColor"
                 id="g120"
                 transform="translate(-113.385)" /></g></g><g fill="currentColor"
             id="g122"><g fill="currentColor"
               id="g124"><path
                 d="m 115.87793,28.3468 c 0,1.37558 -1.11511,2.4907 -2.49069,2.4907 -1.37558,0 -2.49069,-1.11512 -2.49069,-2.4907 0,-1.37558 1.11511,-2.49069 2.49069,-2.49069 1.37558,0 2.49069,1.11511 2.49069,2.49069 z"
                 style="fill:currentColor;fill-opacity:1;fill-rule:nonzero;stroke:none"
                 id="path126" /></g><g fill="currentColor"
               id="g128"
               transform="translate(113.385,28.347)"><g fill="currentColor"
                 id="g130" /><g fill="currentColor"
                 id="g132"
                 transform="translate(-113.385,-28.347)" /></g></g><g fill="currentColor"
             id="g134"><g fill="currentColor"
               id="g136"
               transform="translate(14.173,14.174)"><g fill="currentColor"
                 id="g138" /><g fill="currentColor"
                 id="g140"
                 transform="translate(-14.173,-14.174)" /></g></g><g fill="currentColor"
             id="g142"><path
               d="M 2.68994,28.3468 H 23.06659"
               style="fill:none;stroke:currentColor;stroke-width:0.79701;stroke-linecap:butt;stroke-linejoin:miter;stroke-miterlimit:10;stroke-dasharray:none;stroke-opacity:1"
               id="path144" /><g fill="currentColor"
               id="g146"
               transform="translate(23.06659,28.3468)"><g fill="currentColor"
                 id="g148"><path
                   d="M 2.59026,0 -1.55415,2.0722 0,0 -1.55415,-2.0722"
                   style="fill:currentColor;fill-opacity:1;fill-rule:nonzero;stroke:none"
                   id="path150" /></g></g></g><g fill="currentColor"
             id="g152"><path
               d="M 2.68994,0 H 23.06659"
               style="fill:none;stroke:currentColor;stroke-width:0.79701;stroke-linecap:butt;stroke-linejoin:miter;stroke-miterlimit:10;stroke-dasharray:none;stroke-opacity:1"
               id="path154" /><g fill="currentColor"
               id="g156"
               transform="translate(23.06659)"><g fill="currentColor"
                 id="g158"><path
                   d="M 2.59026,0 -1.55415,2.0722 0,0 -1.55415,-2.0722"
                   style="fill:currentColor;fill-opacity:1;fill-rule:nonzero;stroke:none"
                   id="path160" /></g></g></g><g fill="currentColor"
             id="g162"><path
               d="M 1.90207,26.44473 24.61313,3.73366"
               style="fill:none;stroke:currentColor;stroke-width:0.79701;stroke-linecap:butt;stroke-linejoin:miter;stroke-miterlimit:10;stroke-dasharray:none;stroke-opacity:1"
               id="path164" /><g fill="currentColor"
               id="g166"
               transform="matrix(0.7071,-0.7071,0.7071,0.7071,24.61313,3.73366)"><g fill="currentColor"
                 id="g168"><path
                   d="M 2.59026,0 -1.55415,2.0722 0,0 -1.55415,-2.0722"
                   style="fill:currentColor;fill-opacity:1;fill-rule:nonzero;stroke:none"
                   id="path170" /></g></g></g><g fill="currentColor"
             id="g172"><path
               d="m 1.90207,1.90207 10.36925,10.36925 m 3.80413,3.80413 8.53768,8.53768"
               style="fill:none;stroke:currentColor;stroke-width:0.79701;stroke-linecap:butt;stroke-linejoin:miter;stroke-miterlimit:10;stroke-dasharray:none;stroke-opacity:1"
               id="path174" /><g fill="currentColor"
               id="g176"
               transform="matrix(0.7071,0.7071,-0.7071,0.7071,24.61313,24.61313)"><g fill="currentColor"
                 id="g178"><path
                   d="M 2.59026,0 -1.55415,2.0722 0,0 -1.55415,-2.0722"
                   style="fill:currentColor;fill-opacity:1;fill-rule:nonzero;stroke:none"
                   id="path180" /></g></g></g><g fill="currentColor"
             id="g182"><g fill="currentColor"
               id="g184"
               transform="translate(42.519,14.174)"><g fill="currentColor"
                 id="g186" /><g fill="currentColor"
                 id="g188"
                 transform="translate(-42.519,-14.174)" /></g></g><g fill="currentColor"
             id="g190"><path
               d="M 31.03674,28.3468 H 51.4134"
               style="fill:none;stroke:currentColor;stroke-width:0.79701;stroke-linecap:butt;stroke-linejoin:miter;stroke-miterlimit:10;stroke-dasharray:none;stroke-opacity:1"
               id="path192" /><g fill="currentColor"
               id="g194"
               transform="translate(51.4134,28.3468)"><g fill="currentColor"
                 id="g196"><path
                   d="M 2.59026,0 -1.55415,2.0722 0,0 -1.55415,-2.0722"
                   style="fill:currentColor;fill-opacity:1;fill-rule:nonzero;stroke:none"
                   id="path198" /></g></g></g><g fill="currentColor"
             id="g200"><path
               d="M 31.03674,0 H 51.4134"
               style="fill:none;stroke:currentColor;stroke-width:0.79701;stroke-linecap:butt;stroke-linejoin:miter;stroke-miterlimit:10;stroke-dasharray:none;stroke-opacity:1"
               id="path202" /><g fill="currentColor"
               id="g204"
               transform="translate(51.4134)"><g fill="currentColor"
                 id="g206"><path
                   d="M 2.59026,0 -1.55415,2.0722 0,0 -1.55415,-2.0722"
                   style="fill:currentColor;fill-opacity:1;fill-rule:nonzero;stroke:none"
                   id="path208" /></g></g></g><g fill="currentColor"
             id="g210"><path
               d="M 30.24887,26.44473 52.95995,3.73366"
               style="fill:none;stroke:currentColor;stroke-width:0.79701;stroke-linecap:butt;stroke-linejoin:miter;stroke-miterlimit:10;stroke-dasharray:none;stroke-opacity:1"
               id="path212" /><g fill="currentColor"
               id="g214"
               transform="matrix(0.7071,-0.7071,0.7071,0.7071,52.95995,3.73366)"><g fill="currentColor"
                 id="g216"><path
                   d="M 2.59026,0 -1.55415,2.0722 0,0 -1.55415,-2.0722"
                   style="fill:currentColor;fill-opacity:1;fill-rule:nonzero;stroke:none"
                   id="path218" /></g></g></g><g fill="currentColor"
             id="g220"><path
               d="m 30.24887,1.90207 10.36926,10.36925 m 3.80414,3.80413 8.53768,8.53768"
               style="fill:none;stroke:currentColor;stroke-width:0.79701;stroke-linecap:butt;stroke-linejoin:miter;stroke-miterlimit:10;stroke-dasharray:none;stroke-opacity:1"
               id="path222" /><g fill="currentColor"
               id="g224"
               transform="matrix(0.7071,0.7071,-0.7071,0.7071,52.95995,24.61313)"><g fill="currentColor"
                 id="g226"><path
                   d="M 2.59026,0 -1.55415,2.0722 0,0 -1.55415,-2.0722"
                   style="fill:currentColor;fill-opacity:1;fill-rule:nonzero;stroke:none"
                   id="path228" /></g></g></g><g fill="currentColor"
             id="g230"><g fill="currentColor"
               id="g232"
               transform="translate(70.866,14.174)"><g fill="currentColor"
                 id="g234" /><g fill="currentColor"
                 id="g236"
                 transform="translate(-70.866,-14.174)" /></g></g><g fill="currentColor"
             id="g238"><path
               d="M 59.38356,28.3468 H 79.76021"
               style="fill:none;stroke:currentColor;stroke-width:0.79701;stroke-linecap:butt;stroke-linejoin:miter;stroke-miterlimit:10;stroke-dasharray:none;stroke-opacity:1"
               id="path240" /><g fill="currentColor"
               id="g242"
               transform="translate(79.76021,28.3468)"><g fill="currentColor"
                 id="g244"><path
                   d="M 2.59026,0 -1.55415,2.0722 0,0 -1.55415,-2.0722"
                   style="fill:currentColor;fill-opacity:1;fill-rule:nonzero;stroke:none"
                   id="path246" /></g></g></g><g fill="currentColor"
             id="g248"><path
               d="M 59.38356,0 H 79.76021"
               style="fill:none;stroke:currentColor;stroke-width:0.79701;stroke-linecap:butt;stroke-linejoin:miter;stroke-miterlimit:10;stroke-dasharray:none;stroke-opacity:1"
               id="path250" /><g fill="currentColor"
               id="g252"
               transform="translate(79.76021)"><g fill="currentColor"
                 id="g254"><path
                   d="M 2.59026,0 -1.55415,2.0722 0,0 -1.55415,-2.0722"
                   style="fill:currentColor;fill-opacity:1;fill-rule:nonzero;stroke:none"
                   id="path256" /></g></g></g><g fill="currentColor"
             id="g258"><path
               d="M 58.59569,26.44473 81.30676,3.73366"
               style="fill:none;stroke:currentColor;stroke-width:0.79701;stroke-linecap:butt;stroke-linejoin:miter;stroke-miterlimit:10;stroke-dasharray:none;stroke-opacity:1"
               id="path260" /><g fill="currentColor"
               id="g262"
               transform="matrix(0.7071,-0.7071,0.7071,0.7071,81.30676,3.73366)"><g fill="currentColor"
                 id="g264"><path
                   d="M 2.59026,0 -1.55415,2.0722 0,0 -1.55415,-2.0722"
                   style="fill:currentColor;fill-opacity:1;fill-rule:nonzero;stroke:none"
                   id="path266" /></g></g></g><g fill="currentColor"
             id="g268"><path
               d="m 58.59569,1.90207 10.36925,10.36925 m 3.80413,3.80413 8.53769,8.53768"
               style="fill:none;stroke:currentColor;stroke-width:0.79701;stroke-linecap:butt;stroke-linejoin:miter;stroke-miterlimit:10;stroke-dasharray:none;stroke-opacity:1"
               id="path270" /><g fill="currentColor"
               id="g272"
               transform="matrix(0.7071,0.7071,-0.7071,0.7071,81.30676,24.61313)"><g fill="currentColor"
                 id="g274"><path
                   d="M 2.59026,0 -1.55415,2.0722 0,0 -1.55415,-2.0722"
                   style="fill:currentColor;fill-opacity:1;fill-rule:nonzero;stroke:none"
                   id="path276" /></g></g></g><g fill="currentColor"
             id="g278"><g fill="currentColor"
               id="g280"
               transform="translate(99.212,14.174)"><g fill="currentColor"
                 id="g282" /><g fill="currentColor"
                 id="g284"
                 transform="translate(-99.212,-14.174)" /></g></g><g fill="currentColor"
             id="g286"><path
               d="m 87.73036,28.3468 h 20.37667"
               style="fill:none;stroke:currentColor;stroke-width:0.79701;stroke-linecap:butt;stroke-linejoin:miter;stroke-miterlimit:10;stroke-dasharray:none;stroke-opacity:1"
               id="path288" /><g fill="currentColor"
               id="g290"
               transform="translate(108.10703,28.3468)"><g fill="currentColor"
                 id="g292"><path
                   d="M 2.59026,0 -1.55415,2.0722 0,0 -1.55415,-2.0722"
                   style="fill:currentColor;fill-opacity:1;fill-rule:nonzero;stroke:none"
                   id="path294" /></g></g></g><g fill="currentColor"
             id="g296"><path
               d="m 87.73036,0 h 20.37667"
               style="fill:none;stroke:currentColor;stroke-width:0.79701;stroke-linecap:butt;stroke-linejoin:miter;stroke-miterlimit:10;stroke-dasharray:none;stroke-opacity:1"
               id="path298" /><g fill="currentColor"
               id="g300"
               transform="translate(108.10703)"><g fill="currentColor"
                 id="g302"><path
                   d="M 2.59026,0 -1.55415,2.0722 0,0 -1.55415,-2.0722"
                   style="fill:currentColor;fill-opacity:1;fill-rule:nonzero;stroke:none"
                   id="path304" /></g></g></g><g fill="currentColor"
             id="g306"><path
               d="M 86.94249,26.44473 109.65356,3.73366"
               style="fill:none;stroke:currentColor;stroke-width:0.79701;stroke-linecap:butt;stroke-linejoin:miter;stroke-miterlimit:10;stroke-dasharray:none;stroke-opacity:1"
               id="path308" /><g fill="currentColor"
               id="g310"
               transform="matrix(0.7071,-0.7071,0.7071,0.7071,109.65356,3.73366)"><g fill="currentColor"
                 id="g312"><path
                   d="M 2.59026,0 -1.55415,2.0722 0,0 -1.55415,-2.0722"
                   style="fill:currentColor;fill-opacity:1;fill-rule:nonzero;stroke:none"
                   id="path314" /></g></g></g><g fill="currentColor"
             id="g316"><path
               d="m 86.94249,1.90207 10.36926,10.36925 m 3.80414,3.80413 8.53767,8.53768"
               style="fill:none;stroke:currentColor;stroke-width:0.79701;stroke-linecap:butt;stroke-linejoin:miter;stroke-miterlimit:10;stroke-dasharray:none;stroke-opacity:1"
               id="path318" /><g fill="currentColor"
               id="g320"
               transform="matrix(0.7071,0.7071,-0.7071,0.7071,109.65356,24.61313)"><g fill="currentColor"
                 id="g322"><path
                   d="M 2.59026,0 -1.55415,2.0722 0,0 -1.55415,-2.0722"
                   style="fill:currentColor;fill-opacity:1;fill-rule:nonzero;stroke:none"
                   id="path324" /></g></g></g><g fill="currentColor"
             id="g326"><g fill="currentColor"
               id="g328"
               transform="translate(-15.774,-2.213)"><g fill="currentColor"
                 id="g330"><g fill="currentColor"
                   id="g332"
                   transform="translate(-3.321,-3.321)"><text
                     transform="matrix(1,0,0,-1,3.321,3.321)"
                     style="font-variant:normal;font-weight:normal;font-size:9.9626px;font-family:CMSY10;-inkscape-font-specification:CMSY10;writing-mode:lr-tb;fill:currentColor;fill-opacity:1;fill-rule:nonzero;stroke:none"
                     id="text336"><tspan
                       x="0 4.4313645 8.852766"
                       y="0"
                       sodipodi:role="line"
                       id="tspan334">···</tspan></text><g fill="currentColor"
                     id="g338"
                     transform="translate(3.321,3.321)" /></g></g><g fill="currentColor"
                 id="g340"
                 transform="translate(15.774,2.213)" /></g></g><g fill="currentColor"
             id="g342"><g fill="currentColor"
               id="g344"
               transform="translate(-15.774,26.133)"><g fill="currentColor"
                 id="g346"><g fill="currentColor"
                   id="g348"
                   transform="translate(-3.321,-31.667)"><text
                     transform="matrix(1,0,0,-1,3.321,31.667)"
                     style="font-variant:normal;font-weight:normal;font-size:9.9626px;font-family:CMSY10;-inkscape-font-specification:CMSY10;writing-mode:lr-tb;fill:currentColor;fill-opacity:1;fill-rule:nonzero;stroke:none"
                     id="text352"><tspan
                       x="0 4.4313645 8.852766"
                       y="0"
                       sodipodi:role="line"
                       id="tspan350">···</tspan></text><g fill="currentColor"
                     id="g354"
                     transform="translate(3.321,31.667)" /></g></g><g fill="currentColor"
                 id="g356"
                 transform="translate(15.774,-26.133)" /></g></g><g fill="currentColor"
             id="g358"><g fill="currentColor"
               id="g360"
               transform="translate(117.537,-2.213)"><g fill="currentColor"
                 id="g362"><g fill="currentColor"
                   id="g364"
                   transform="translate(-136.632,-3.321)"><text
                     transform="matrix(1,0,0,-1,136.632,3.321)"
                     style="font-variant:normal;font-weight:normal;font-size:9.9626px;font-family:CMSY10;-inkscape-font-specification:CMSY10;writing-mode:lr-tb;fill:currentColor;fill-opacity:1;fill-rule:nonzero;stroke:none"
                     id="text368"><tspan
                       x="0 4.4313645 8.852766"
                       y="0"
                       sodipodi:role="line"
                       id="tspan366">···</tspan></text><g fill="currentColor"
                     id="g370"
                     transform="translate(136.632,3.321)" /></g></g><g fill="currentColor"
                 id="g372"
                 transform="translate(-117.537,2.213)" /></g></g><g fill="currentColor"
             id="g374"><g fill="currentColor"
               id="g376"
               transform="translate(117.537,26.133)"><g fill="currentColor"
                 id="g378"><g fill="currentColor"
                   id="g380"
                   transform="translate(-136.632,-31.667)"><text
                     transform="matrix(1,0,0,-1,136.632,31.667)"
                     style="font-variant:normal;font-weight:normal;font-size:9.9626px;font-family:CMSY10;-inkscape-font-specification:CMSY10;writing-mode:lr-tb;fill:currentColor;fill-opacity:1;fill-rule:nonzero;stroke:none"
                     id="text384"><tspan
                       x="0 4.4313645 8.852766"
                       y="0"
                       sodipodi:role="line"
                       id="tspan382">···</tspan></text><g fill="currentColor"
                     id="g386"
                     transform="translate(136.632,31.667)" /></g></g><g fill="currentColor"
                 id="g388"
                 transform="translate(-117.537,-26.133)" /></g></g></g></g></g></g></svg>
